<svg width="102" height="101" viewBox="0 0 102 101" fill="none" xmlns="http://www.w3.org/2000/svg">
<path d="M50.9505 95.1139C75.6882 95.1415 95.7644 75.1099 95.792 50.3722C95.8195 25.6344 75.788 5.55819 51.0502 5.53063C26.3125 5.50308 6.23627 25.5346 6.20872 50.2724C6.18116 75.0101 26.2127 95.0864 50.9505 95.1139Z" stroke="#48746D" stroke-width="2.08333" stroke-linecap="round" stroke-linejoin="round"/>
<path d="M34.8761 8.52093L39.1119 11.8902L47.9996 13.6085L46.559 18.2652L41.5112 20.0054L36.8821 27.4544L29.3457 32.1044L18.7858 33.4905L18.5478 37.6819L21.9208 41.3357L21.6806 47.5083L12.294 41.0916L9.59026 33.2199" stroke="#48746D" stroke-width="2.08333" stroke-linecap="round" stroke-linejoin="round"/>
<path d="M87.4902 76.3046L82.8333 73.1348L79.8131 66.9814L73.9621 56.6437L73.7758 49.8893L69.2374 46.9863L62.7545 46.6208L52.0826 41.9651L50.3877 31.7007L54.9723 26.8537L64.3681 26.8642L67.7404 31.1763L80.9372 32.2014L90.2245 28.6763M83.6803 19.692L78.8123 22.7261L71.1285 21.3197L66.4331 19.0644L60.2206 20.9596L55.7178 19.6733L58.7148 13.0767L64.1103 13.3535L70.6244 10.0483M43.3262 94.4575L51.9146 89.8545L59.9382 89.3197L65.6836 87.8511L72.5545 89.5963M18.5728 50.6861L26.2295 42.8551L29.367 48.4482L39.9641 49.1975L44.9244 56.7342L51.2515 56.7413L49.4969 64.6185L43.5115 70.241L43.4293 74.7826L37.1741 79.5131L37.3591 87.355L32.1217 85.4075L29.4884 77.9129L29.6221 62.5401L21.6654 61.0938L18.568 54.9965L18.5728 50.6861Z" stroke="#48746D" stroke-width="2.08333" stroke-linecap="round" stroke-linejoin="round"/>
</svg>
